# xmcd CD database file
#
# Track frame offsets:
#	150
#	17627
#	34407
#
# Disc length: 689 seconds
#
# Revision: 6
# Processed by: cddbd v1.5PL3 Copyright (c) Steve Scherf et al.
# Submitted via: CDex 1.50beta9
#
DISCID=1d02af03
DTITLE=藤本美貴 - 会えない長い日曜日
DYEAR=2002
DGENRE=JPop
TTITLE0=会えない長い日曜日
TTITLE1=Let's Do 大発見！
TTITLE2=会えない長い日曜日(Instrumental)
EXTD=YEAR: 2002
EXTT0=
EXTT1=
EXTT2=
PLAYORDER=
